<?xml version="1.0" standalone="no"?>
<!DOCTYPE svg PUBLIC "-//W3C//DTD SVG 20010904//EN"
 "http://www.w3.org/TR/2001/REC-SVG-20010904/DTD/svg10.dtd">
<svg version="1.0" xmlns="http://www.w3.org/2000/svg"
 width="700.000000pt" height="183.000000pt" viewBox="0 0 700.000000 183.000000"
 preserveAspectRatio="xMidYMid meet">

<g transform="translate(0.000000,183.000000) scale(0.100000,-0.100000)"
fill="#000000" stroke="none">
<path d="M3272 1736 c-194 -49 -370 -215 -431 -406 -32 -100 -31 -281 1 -362
19 -49 27 -37 54 77 26 113 132 245 234 293 45 22 70 26 135 27 85 0 108 -9
268 -96 78 -42 132 -48 192 -19 78 38 130 132 142 255 l6 62 -44 35 c-64 51
-115 81 -194 113 -60 24 -86 28 -190 31 -78 2 -138 -1 -173 -10z"/>
<path d="M6427 1672 c-10 -10 -17 -21 -17 -24 0 -4 -31 -71 -69 -150 -357
-745 -385 -806 -371 -823 9 -11 34 -15 101 -15 l89 0 39 85 40 85 216 0 216 0
25 -57 c48 -114 41 -108 124 -111 88 -3 120 3 120 23 0 9 -22 59 -49 113 -26
53 -131 270 -231 482 -101 212 -187 391 -193 398 -13 16 -21 15 -40 -6z m106
-519 c36 -81 63 -151 61 -155 -7 -11 -271 -10 -278 1 -5 8 107 265 126 289 6
6 14 12 18 12 3 0 36 -66 73 -147z"/>
<path d="M1113 1660 l-23 -9 0 -484 c0 -362 3 -486 12 -495 17 -17 709 -17
726 0 7 7 12 40 12 78 0 38 -5 71 -12 78 -9 9 -85 12 -280 12 l-268 0 0 120 0
120 223 2 222 3 3 73 c2 46 -2 79 -9 88 -9 11 -54 14 -225 14 l-214 0 0 110 0
110 274 0 c312 0 286 -9 286 95 0 98 17 94 -374 94 -182 0 -341 -4 -353 -9z"/>
<path d="M5113 1659 c-10 -10 -13 -123 -13 -495 0 -413 2 -483 15 -494 11 -9
73 -11 252 -7 243 4 299 13 383 57 101 52 185 154 220 267 22 73 27 234 9 313
-40 175 -176 306 -360 346 -101 22 -488 32 -506 13z m522 -214 c66 -34 125
-101 144 -165 48 -160 6 -315 -103 -383 -69 -43 -135 -57 -273 -57 l-123 0 0
313 c0 173 3 317 8 321 4 4 70 6 148 4 133 -3 143 -5 199 -33z"/>
<path d="M105 1648 c-3 -7 -4 -231 -3 -498 l3 -485 73 -3 c46 -2 79 2 88 9 11
9 14 69 14 332 l0 320 20 -18 c12 -11 120 -154 242 -319 121 -166 228 -307
236 -313 22 -18 136 -17 151 1 8 9 10 148 9 497 l-3 484 -85 0 -85 0 -3 -318
c-2 -248 -5 -318 -15 -315 -11 4 -165 209 -339 453 -39 55 -87 119 -106 143
l-34 42 -80 0 c-54 0 -80 -4 -83 -12z"/>
<path d="M1935 1650 c-4 -6 -2 -16 3 -23 109 -139 332 -452 329 -461 -3 -6
-84 -116 -181 -243 -97 -127 -176 -236 -176 -241 0 -15 18 -18 115 -21 62 -2
95 2 106 11 9 7 60 76 113 153 129 189 122 181 141 165 8 -7 57 -73 108 -147
50 -74 100 -146 110 -159 17 -23 24 -24 123 -24 82 0 106 3 110 15 4 8 -59
102 -159 237 -90 123 -170 233 -177 244 -12 20 -9 28 36 85 241 307 304 389
304 398 0 7 -40 11 -113 11 l-113 0 -109 -150 c-65 -88 -117 -150 -127 -150
-17 0 -40 29 -158 203 l-73 107 -103 0 c-61 0 -105 -4 -109 -10z"/>
<path d="M4125 1648 c-3 -7 -4 -231 -3 -498 l3 -485 76 -3 c55 -2 79 1 87 11
8 9 13 112 14 333 l3 319 185 -250 c102 -137 212 -286 245 -330 l60 -80 75 0
75 0 0 495 0 495 -85 0 -85 0 -3 -318 c-1 -210 -6 -317 -12 -315 -11 3 -104
127 -340 452 l-135 185 -78 1 c-53 0 -79 -4 -82 -12z"/>
<path d="M3943 1358 c-5 -7 -21 -34 -36 -59 -43 -75 -103 -123 -182 -144 -64
-18 -72 -18 -130 -3 -33 9 -98 39 -144 67 -89 54 -154 70 -234 57 -80 -13
-165 -82 -210 -172 -36 -70 -76 -271 -62 -313 9 -30 34 -26 41 7 36 165 127
289 241 332 72 27 133 23 200 -12 26 -14 80 -42 118 -63 66 -35 74 -37 145
-33 91 6 161 38 213 99 54 63 71 105 72 178 0 63 -12 85 -32 59z"/>
<path d="M3963 1064 c-47 -62 -95 -94 -171 -115 -123 -35 -186 -23 -330 61
-115 66 -153 72 -227 36 -88 -44 -142 -120 -176 -253 -23 -93 -22 -96 96 -153
144 -70 273 -83 430 -44 184 47 352 216 400 403 9 35 15 73 13 86 -3 20 -6 18
-35 -21z"/>
<path d="M5676 361 c-25 -27 -19 -33 14 -16 34 18 36 21 16 28 -8 3 -21 -2
-30 -12z"/>
<path d="M282 304 c-13 -9 -22 -26 -22 -40 0 -21 10 -29 56 -50 32 -14 54 -30
51 -37 -4 -13 -62 -15 -89 -3 -14 6 -18 3 -18 -12 0 -16 8 -23 36 -28 56 -10
98 6 102 39 4 37 -11 54 -60 67 -29 8 -38 16 -36 28 3 12 14 17 43 18 59 2 62
3 41 19 -26 19 -76 19 -104 -1z"/>
<path d="M470 250 c0 -62 3 -74 25 -95 32 -33 78 -33 110 0 22 21 25 33 25 95
0 56 -3 70 -15 70 -12 0 -15 -13 -15 -58 0 -63 -19 -102 -49 -102 -30 0 -40
22 -43 90 -2 52 -6 65 -20 68 -16 3 -18 -5 -18 -68z"/>
<path d="M729 235 c-21 -47 -39 -90 -39 -95 0 -21 31 -9 40 15 8 21 16 25 53
25 37 0 46 -4 55 -25 14 -31 47 -35 37 -5 -20 62 -77 170 -91 170 -9 0 -30
-32 -55 -85z m81 -22 c0 -7 -11 -13 -25 -13 -28 0 -30 4 -13 51 l12 34 12 -30
c7 -17 13 -36 14 -42z"/>
<path d="M1054 307 c-3 -8 -4 -49 -2 -93 2 -61 6 -79 18 -79 11 0 13 12 11 53
-1 28 2 52 6 52 5 0 19 -18 32 -40 12 -22 26 -42 31 -45 4 -3 21 16 37 42 l28
48 3 -57 c2 -43 7 -58 17 -58 12 0 15 19 15 95 0 109 -12 122 -50 53 -47 -86
-43 -85 -84 -18 -37 60 -52 71 -62 47z"/>
<path d="M1360 237 c-22 -47 -40 -90 -40 -96 0 -21 30 -11 42 14 9 21 18 25
53 25 35 0 44 -4 53 -25 10 -21 42 -36 42 -20 0 22 -82 181 -95 183 -11 3 -27
-21 -55 -81z m80 -24 c0 -7 -11 -13 -25 -13 -28 0 -31 15 -13 56 l12 27 13
-29 c7 -16 12 -35 13 -41z"/>
<path d="M1574 307 c-3 -8 -4 -49 -2 -93 2 -62 6 -79 18 -79 9 0 15 10 15 25
0 39 34 39 66 0 16 -18 34 -30 44 -28 15 3 14 6 -6 32 -17 21 -20 31 -10 34
19 6 32 49 21 76 -14 39 -133 65 -146 33z m97 -27 c40 -22 12 -70 -40 -70 -18
0 -21 6 -21 40 0 34 3 40 21 40 11 0 29 -5 40 -10z"/>
<path d="M1821 294 c-25 -20 -31 -34 -31 -64 0 -52 8 -68 41 -85 39 -21 82
-19 110 4 21 17 22 20 7 26 -9 4 -25 2 -37 -4 -29 -16 -44 -14 -69 9 -28 27
-28 61 1 88 25 24 57 28 74 11 7 -7 20 -8 30 -5 17 7 16 9 -6 27 -33 27 -83
24 -120 -7z"/>
<path d="M2041 230 c-22 -50 -41 -93 -41 -95 0 -3 8 -5 18 -5 11 0 24 11 30
25 10 21 19 25 52 25 33 0 42 -4 52 -25 6 -14 19 -25 29 -25 16 0 16 5 -7 56
-43 99 -64 134 -78 134 -7 0 -32 -41 -55 -90z m72 23 c2 -10 8 -26 12 -35 6
-15 2 -18 -24 -18 -34 0 -37 6 -19 45 13 29 24 32 31 8z"/>
<path d="M2370 225 c0 -76 3 -95 15 -95 10 0 15 16 17 61 l3 62 48 -62 c68
-86 77 -82 77 34 0 76 -3 95 -15 95 -10 0 -15 -16 -17 -62 l-3 -63 -49 63
c-27 34 -55 62 -63 62 -10 0 -13 -22 -13 -95z"/>
<path d="M2661 282 c-11 -22 -31 -65 -45 -96 -23 -51 -23 -56 -7 -56 10 0 23
11 29 25 10 21 19 25 52 25 33 0 42 -4 52 -25 9 -21 48 -37 48 -20 0 21 -82
181 -94 183 -9 2 -23 -12 -35 -36z m47 -37 c18 -39 15 -45 -19 -45 -26 0 -30
3 -24 18 4 9 10 25 12 35 7 24 18 21 31 -8z"/>
<path d="M2988 305 c-54 -30 -64 -95 -24 -142 21 -24 32 -28 76 -28 44 0 55 4
76 28 51 59 17 144 -61 153 -25 3 -50 -1 -67 -11z m94 -32 c26 -23 24 -78 -4
-97 -30 -21 -54 -20 -78 4 -56 56 23 146 82 93z"/>
<path d="M3214 307 c-3 -8 -4 -49 -2 -93 2 -65 6 -79 20 -82 14 -3 18 7 20 57
l3 60 45 -57 c65 -82 74 -77 78 36 2 84 1 93 -14 90 -14 -2 -17 -14 -17 -60 0
-32 -3 -58 -6 -58 -3 1 -26 27 -51 60 -45 59 -66 72 -76 47z"/>
<path d="M3460 224 l0 -97 67 6 c57 4 71 9 90 32 27 31 30 80 8 112 -17 25
-71 43 -127 43 l-38 0 0 -96z m125 41 c14 -13 25 -31 25 -40 0 -27 -46 -65
-80 -65 l-30 0 0 65 0 65 30 0 c19 0 40 -9 55 -25z"/>
<path d="M3756 288 c-8 -18 -26 -59 -40 -91 -31 -68 -30 -67 -11 -67 9 0 21
11 27 25 9 21 18 25 55 25 37 0 45 -4 53 -25 9 -25 40 -35 40 -14 0 6 -18 49
-39 95 -44 92 -62 104 -85 52z m64 -80 c0 -5 -13 -8 -30 -8 -34 0 -34 1 -18
47 l12 34 18 -33 c9 -18 17 -36 18 -40z"/>
<path d="M4060 225 l0 -95 48 0 c100 0 154 61 119 135 -18 37 -60 55 -129 55
l-38 0 0 -95z m120 45 c45 -45 9 -116 -57 -108 -26 3 -28 7 -31 52 -2 27 -1
55 2 62 8 21 63 17 86 -6z"/>
<path d="M4348 304 c-81 -43 -56 -159 37 -170 49 -6 85 12 103 50 42 86 -54
167 -140 120z m90 -30 c46 -32 18 -114 -39 -114 -29 0 -61 34 -61 65 0 31 32
65 61 65 9 0 27 -7 39 -16z"/>
<path d="M4582 304 c-24 -17 -29 -56 -9 -72 7 -6 31 -17 52 -24 21 -7 40 -18
42 -25 6 -18 -44 -27 -73 -14 -20 9 -26 8 -31 -4 -8 -21 -1 -26 46 -32 54 -7
94 17 89 55 -3 26 -16 36 -82 61 -24 10 -26 14 -15 27 9 12 24 15 51 11 43 -6
59 7 29 22 -28 16 -73 13 -99 -5z"/>
<path d="M4884 307 c-3 -8 -4 -49 -2 -93 2 -65 6 -79 20 -82 14 -3 17 7 20 57
l3 61 48 -60 c69 -85 77 -81 77 35 0 88 -1 95 -20 95 -18 0 -20 -7 -20 -61 l0
-62 -47 61 c-48 61 -69 74 -79 49z"/>
<path d="M5140 225 l0 -95 65 0 c51 0 65 3 65 15 0 11 -12 15 -50 15 -47 0
-50 2 -50 25 0 23 4 25 45 25 33 0 45 4 45 15 0 11 -12 15 -45 15 -41 0 -45 2
-45 25 0 23 3 25 50 25 38 0 50 4 50 15 0 12 -14 15 -65 15 l-65 0 0 -95z"/>
<path d="M5371 294 c-26 -21 -31 -33 -31 -69 0 -36 5 -48 31 -69 32 -27 70
-33 113 -16 22 8 26 16 26 50 0 34 -3 41 -17 38 -11 -2 -20 -15 -23 -33 -7
-39 -42 -46 -76 -14 -58 55 6 136 78 98 31 -17 45 5 17 25 -35 24 -83 20 -118
-10z"/>
<path d="M5608 291 c-86 -77 15 -201 121 -147 26 14 51 53 51 81 0 28 -25 67
-51 81 -44 22 -85 17 -121 -15z m112 -21 c26 -26 25 -64 -2 -90 -29 -27 -66
-22 -91 11 -46 62 38 134 93 79z"/>
<path d="M5878 305 c-39 -22 -54 -75 -33 -118 25 -53 97 -75 141 -43 29 22 6
41 -29 25 -54 -25 -100 26 -77 85 11 31 54 44 83 27 14 -9 22 -10 30 -2 30 30
-69 52 -115 26z"/>
<path d="M6070 225 c0 -88 1 -95 20 -95 19 0 20 7 20 95 0 88 -1 95 -20 95
-19 0 -20 -7 -20 -95z"/>
<path d="M6228 305 c-39 -22 -56 -81 -35 -122 46 -87 187 -55 187 43 0 70 -87
116 -152 79z m101 -41 c27 -34 26 -50 -4 -79 -29 -30 -58 -32 -85 -5 -39 39
-11 110 44 110 15 0 33 -11 45 -26z"/>
<path d="M6459 299 c-14 -14 -18 -27 -13 -42 8 -27 18 -34 67 -49 26 -8 37
-17 35 -27 -4 -19 -50 -26 -77 -12 -14 8 -20 7 -25 -4 -13 -36 90 -49 124 -15
37 37 18 72 -51 90 -30 8 -39 16 -37 28 3 12 14 17 43 18 59 2 62 3 41 19 -29
22 -82 19 -107 -6z"/>
</g>
</svg>
