<?xml version="1.0" standalone="no"?>
<!DOCTYPE svg PUBLIC "-//W3C//DTD SVG 20010904//EN"
 "http://www.w3.org/TR/2001/REC-SVG-20010904/DTD/svg10.dtd">
<svg version="1.0" xmlns="http://www.w3.org/2000/svg"
 width="698.000000pt" height="182.000000pt" viewBox="0 0 698.000000 182.000000"
 preserveAspectRatio="xMidYMid meet">

<g transform="translate(0.000000,182.000000) scale(0.100000,-0.100000)"
fill="#000000" stroke="none">
<path d="M3266 1719 c-27 -4 -87 -26 -134 -49 -69 -33 -101 -56 -164 -121
-147 -148 -206 -327 -176 -528 7 -46 18 -86 24 -88 6 -2 18 24 28 59 40 142
149 284 259 334 51 24 75 29 137 28 87 0 138 -19 242 -91 83 -57 142 -67 205
-35 86 44 133 135 133 258 0 62 0 63 -47 104 -66 57 -198 119 -275 131 -74 10
-164 10 -232 -2z"/>
<path d="M6366 1578 c-68 -145 -152 -321 -221 -463 -161 -332 -197 -412 -199
-440 l-1 -30 95 0 95 0 34 83 34 82 219 -2 219 -3 36 -83 36 -83 90 3 c67 2
92 7 99 18 10 16 -5 52 -167 385 -40 83 -102 213 -138 290 -137 297 -157 335
-172 335 -10 0 -32 -35 -59 -92z m147 -463 c24 -55 47 -110 51 -122 l7 -23
-149 0 -150 0 38 93 c20 51 54 128 75 172 l37 80 23 -50 c12 -28 43 -95 68
-150z"/>
<path d="M66 1625 c-3 -9 -6 -227 -6 -484 0 -362 3 -471 13 -485 10 -14 25
-16 87 -14 l75 3 5 340 5 340 116 -155 c64 -85 131 -177 150 -205 19 -27 80
-112 137 -187 l102 -138 69 0 c46 0 72 5 80 14 8 9 10 148 9 497 l-3 484 -85
0 -85 0 -5 -329 -5 -328 -105 142 c-58 78 -168 226 -245 328 l-141 187 -81 3
c-67 2 -82 0 -87 -13z"/>
<path d="M1062 1628 c-17 -17 -17 -959 0 -976 17 -17 719 -17 736 0 16 16 16
140 0 156 -9 9 -85 12 -280 12 l-268 0 0 120 0 120 223 2 222 3 0 80 0 80
-222 3 -223 2 0 115 0 115 268 0 c195 0 271 3 280 12 7 7 12 40 12 78 0 38 -5
71 -12 78 -17 17 -719 17 -736 0z"/>
<path d="M1920 1619 c0 -11 13 -37 29 -57 15 -20 72 -98 126 -172 54 -74 113
-155 132 -179 18 -24 33 -48 33 -54 0 -5 -53 -82 -118 -170 -231 -315 -233
-319 -221 -333 8 -10 37 -14 99 -14 l88 0 39 52 c21 29 61 84 88 123 115 163
130 184 135 184 3 0 30 -35 60 -78 30 -43 88 -124 129 -180 l73 -102 92 3
c136 4 139 -5 -104 322 -25 34 -67 91 -93 128 l-47 66 62 83 c35 45 92 122
128 169 36 48 85 112 109 143 60 79 54 87 -62 87 l-94 0 -40 -52 c-45 -61
-204 -271 -208 -276 -2 -2 -56 71 -121 162 l-118 166 -98 0 c-92 0 -98 -1 -98
-21z"/>
<path d="M4100 1623 c0 -10 -1 -230 -1 -489 -1 -259 1 -476 5 -483 10 -16 141
-14 155 2 7 9 12 118 13 333 l3 318 131 -174 c71 -96 158 -213 192 -260 35
-47 88 -118 118 -158 l56 -73 71 3 72 3 5 35 c3 19 4 243 2 498 l-2 462 -79 0
c-53 0 -82 -4 -90 -13 -7 -9 -12 -116 -13 -326 l-3 -312 -142 193 c-79 106
-187 252 -240 325 l-98 132 -77 1 c-68 0 -78 -2 -78 -17z"/>
<path d="M5077 1633 c-4 -3 -7 -223 -7 -488 0 -361 3 -484 12 -493 18 -18 413
-16 501 3 103 22 170 57 238 124 92 92 139 213 139 356 0 188 -86 344 -239
435 -101 60 -160 70 -417 70 -121 0 -224 -3 -227 -7z m519 -197 c116 -54 164
-128 172 -266 6 -110 -9 -176 -54 -233 -67 -86 -183 -127 -356 -127 l-108 0 0
325 0 325 148 0 c133 0 152 -2 198 -24z"/>
<path d="M3902 1318 c-11 -24 -43 -69 -71 -100 -45 -49 -62 -61 -118 -78 -114
-35 -172 -23 -299 63 l-78 52 -96 0 c-91 0 -99 -2 -139 -30 -67 -45 -129 -134
-162 -230 -25 -71 -29 -98 -27 -163 2 -44 7 -76 13 -76 6 1 19 28 31 60 33 93
72 163 122 217 58 61 148 107 212 107 49 0 133 -34 189 -77 47 -36 123 -63
177 -63 75 0 123 20 181 75 44 40 58 63 78 120 25 70 33 165 15 165 -5 0 -18
-19 -28 -42z"/>
<path d="M3918 1048 c-46 -69 -87 -101 -157 -122 -109 -32 -196 -14 -328 66
-122 75 -172 75 -270 1 -51 -37 -110 -133 -134 -216 -22 -75 -23 -77 -4 -97
56 -62 242 -129 355 -129 71 0 201 33 271 70 79 41 203 162 247 242 34 61 65
172 60 215 -3 23 -6 21 -40 -30z"/>
<path d="M120 311 c0 -6 14 -32 30 -58 20 -31 30 -60 30 -85 0 -31 4 -38 20
-38 16 0 20 7 20 31 0 17 16 60 36 95 32 57 34 64 17 64 -13 0 -29 -16 -45
-46 l-25 -46 -24 43 c-22 40 -59 65 -59 40z"/>
<path d="M382 304 c-61 -42 -62 -121 -2 -162 41 -27 65 -28 108 -2 39 24 56
62 47 108 -11 59 -101 93 -153 56z m108 -43 c26 -49 -3 -101 -55 -101 -48 0
-77 58 -49 99 20 29 89 30 104 2z"/>
<path d="M610 255 c0 -85 18 -122 65 -131 70 -13 108 37 103 135 -2 44 -7 57
-20 59 -16 3 -18 -5 -18 -58 0 -72 -12 -100 -43 -100 -37 0 -47 19 -47 92 0
61 -2 68 -20 68 -18 0 -20 -7 -20 -65z"/>
<path d="M850 225 c0 -88 1 -95 20 -95 15 0 20 7 20 25 0 21 5 25 30 25 23 0
33 -6 42 -25 6 -14 19 -25 30 -25 22 0 22 4 2 35 -15 22 -15 26 0 40 22 23 20
71 -4 95 -16 16 -33 20 -80 20 l-60 0 0 -95z m119 41 c21 -25 2 -46 -40 -46
-37 0 -39 2 -39 30 0 27 3 30 34 30 18 0 39 -6 45 -14z"/>
<path d="M1204 307 c-3 -8 -4 -49 -2 -93 l3 -79 45 -3 c73 -5 109 5 116 34 4
17 1 31 -12 45 -13 15 -15 22 -6 31 19 19 14 45 -10 62 -28 20 -126 22 -134 3z
m114 -44 c-2 -13 -14 -19 -41 -21 -32 -3 -37 0 -37 17 0 18 6 21 41 21 33 0
40 -3 37 -17z m10 -80 c3 -21 -1 -23 -42 -23 -43 0 -46 2 -46 26 0 23 3 25 43
22 35 -2 43 -7 45 -25z"/>
<path d="M1440 225 c0 -88 1 -95 20 -95 15 0 20 7 20 25 0 35 42 34 67 -1 12
-15 27 -25 37 -23 17 4 16 6 -3 30 -20 26 -20 27 -1 44 29 26 26 69 -6 94 -20
15 -41 21 -80 21 l-54 0 0 -95z m115 25 c0 -22 -5 -25 -37 -28 -36 -3 -38 -2
-38 28 0 30 2 31 38 28 32 -3 37 -6 37 -28z"/>
<path d="M1730 308 c-1 -7 -18 -49 -40 -93 -33 -68 -36 -81 -22 -84 9 -2 23 6
30 18 20 29 96 30 112 1 14 -25 45 -28 35 -2 -4 9 -14 34 -22 55 -27 76 -53
117 -73 117 -11 0 -20 -6 -20 -12z m46 -105 c-2 -2 -15 -3 -28 -1 -24 3 -24 4
-10 38 l15 35 14 -34 c8 -18 12 -35 9 -38z"/>
<path d="M1910 225 c0 -88 2 -95 20 -95 16 0 19 8 22 57 l3 57 44 -58 c63 -81
76 -74 76 39 0 77 -3 90 -17 93 -14 3 -17 -7 -20 -60 l-3 -63 -45 62 c-25 34
-53 62 -62 62 -16 1 -18 -10 -18 -94z"/>
<path d="M2160 225 l0 -97 71 4 c60 3 74 8 90 27 27 33 25 93 -5 127 -20 24
-32 28 -90 32 l-66 4 0 -97z m131 34 c15 -15 19 -28 14 -47 -9 -37 -16 -43
-64 -49 l-41 -6 0 62 0 61 35 0 c22 0 43 -8 56 -21z"/>
<path d="M2551 291 c-64 -60 -19 -171 70 -171 87 0 132 109 70 171 -41 40 -97
41 -140 0z m117 -23 c17 -17 15 -74 -4 -92 -22 -22 -70 -20 -94 4 -41 41 -12
100 49 100 20 0 42 -5 49 -12z"/>
<path d="M2800 225 c0 -78 3 -95 15 -95 12 0 15 13 15 61 l0 62 47 -62 c27
-35 55 -61 65 -61 17 0 18 8 16 92 -3 79 -6 93 -20 96 -16 3 -18 -5 -18 -58
l0 -62 -47 61 c-27 33 -54 60 -60 61 -10 0 -13 -25 -13 -95z"/>
<path d="M3140 300 c0 -16 7 -20 30 -20 l30 0 0 -75 c0 -60 3 -75 15 -75 12 0
15 15 15 75 l0 75 30 0 c23 0 30 4 30 20 0 18 -7 20 -75 20 -68 0 -75 -2 -75
-20z"/>
<path d="M3360 225 c0 -88 1 -95 20 -95 17 0 20 7 20 40 l0 40 45 0 45 0 0
-41 c0 -33 3 -40 18 -37 15 3 17 15 17 93 0 78 -2 90 -17 93 -15 3 -18 -4 -18
-37 l0 -41 -45 0 -45 0 0 40 c0 33 -3 40 -20 40 -19 0 -20 -7 -20 -95z"/>
<path d="M3610 225 l0 -95 70 0 c56 0 70 3 70 15 0 11 -12 15 -50 15 -47 0
-50 2 -50 25 0 23 4 25 45 25 33 0 45 4 45 15 0 11 -12 15 -45 15 -38 0 -45 3
-45 20 0 17 7 20 50 20 43 0 50 3 50 20 0 18 -7 20 -70 20 l-70 0 0 -95z"/>
<path d="M3940 225 l0 -95 61 0 c33 0 69 5 80 10 24 13 26 68 4 77 -14 5 -14
7 0 24 22 23 11 57 -22 70 -13 5 -47 9 -74 9 l-49 0 0 -95z m115 35 c0 -10
-12 -16 -37 -18 -33 -3 -38 0 -38 18 0 18 5 21 38 18 25 -2 37 -8 37 -18z m5
-65 c18 -22 3 -35 -41 -35 -35 0 -39 3 -39 25 0 22 4 25 34 25 18 0 39 -7 46
-15z"/>
<path d="M4179 268 c-2 -88 1 -102 27 -125 28 -25 51 -28 87 -12 34 16 47 49
47 125 0 57 -2 65 -17 62 -15 -3 -19 -16 -21 -73 -3 -72 -10 -85 -49 -85 -31
0 -43 28 -43 99 0 48 -3 61 -15 61 -11 0 -15 -13 -16 -52z"/>
<path d="M4430 300 c-39 -39 -24 -69 46 -92 59 -20 52 -43 -13 -42 -65 2 -72
-19 -13 -37 34 -11 46 -10 75 4 61 29 43 81 -37 107 -21 6 -38 17 -38 25 0 17
37 26 66 14 19 -7 26 -5 31 7 14 37 -83 48 -117 14z"/>
<path d="M4630 224 c0 -86 2 -95 18 -92 14 3 17 15 17 78 1 92 -2 110 -21 110
-11 0 -14 -19 -14 -96z"/>
<path d="M4750 225 c0 -88 1 -95 20 -95 18 0 20 7 20 61 l0 62 47 -62 c27 -34
55 -61 65 -61 16 0 18 10 18 96 0 86 -2 95 -17 92 -14 -2 -19 -16 -23 -61 l-5
-59 -45 61 c-25 33 -53 60 -62 61 -16 0 -18 -11 -18 -95z"/>
<path d="M5010 225 l0 -96 67 3 c42 2 68 8 71 16 3 9 -12 12 -52 12 -53 0 -56
1 -56 25 0 23 4 25 45 25 33 0 45 4 45 15 0 11 -12 15 -45 15 -38 0 -45 3 -45
20 0 17 7 20 50 20 43 0 50 3 50 20 0 18 -7 20 -65 20 l-65 0 0 -95z"/>
<path d="M5233 300 c-42 -39 -28 -69 43 -94 59 -20 51 -42 -13 -39 -59 3 -72
-15 -28 -35 40 -19 74 -14 100 13 41 41 30 65 -42 90 -21 7 -39 20 -41 28 -4
18 33 28 63 17 18 -7 25 -5 29 7 9 21 4 25 -46 30 -34 4 -48 0 -65 -17z"/>
<path d="M5442 304 c-17 -12 -22 -24 -20 -47 3 -27 9 -32 52 -47 28 -9 51 -21
53 -27 6 -16 -33 -26 -73 -18 -27 5 -34 3 -34 -10 0 -39 110 -43 131 -4 20 39
7 62 -46 82 -62 23 -64 25 -42 42 12 8 32 11 53 8 26 -4 34 -2 34 10 0 30 -71
37 -108 11z"/>
<path d="M5746 268 c27 -101 45 -138 68 -138 18 0 25 11 40 61 10 33 22 57 26
52 5 -4 15 -30 23 -58 11 -41 18 -50 37 -50 18 0 26 11 44 60 13 33 26 75 29
93 6 28 4 33 -10 30 -12 -2 -24 -26 -38 -73 l-21 -70 -18 50 c-31 87 -36 97
-48 93 -14 -5 -21 -18 -45 -87 l-19 -54 -24 71 c-16 53 -27 72 -40 72 -16 0
-16 -4 -4 -52z"/>
<path d="M6106 258 c-62 -140 -58 -128 -37 -128 11 0 23 9 26 20 5 16 15 20
55 20 40 0 50 -4 55 -20 3 -11 15 -20 25 -20 19 0 17 5 -57 178 -13 31 -40 10
-67 -50z m74 -54 c0 -2 -13 -4 -30 -4 -35 0 -35 1 -14 42 l16 32 14 -33 c8
-18 14 -35 14 -37z"/>
<path d="M6278 315 c-3 -4 12 -47 34 -96 45 -97 68 -113 90 -61 6 15 23 55 39
89 15 34 25 64 21 67 -15 16 -30 0 -56 -60 -33 -75 -41 -74 -74 11 -18 46 -39
65 -54 50z"/>
<path d="M6524 307 c-3 -8 -4 -49 -2 -93 l3 -79 73 -3 c59 -2 72 0 72 13 0 12
-12 15 -55 15 -52 0 -55 1 -55 25 0 23 4 25 45 25 33 0 45 4 45 15 0 11 -12
15 -45 15 -38 0 -45 3 -45 20 0 17 7 20 50 20 43 0 50 3 50 20 0 18 -7 20 -65
20 -46 0 -67 -4 -71 -13z"/>
</g>
</svg>
